<svg xmlns="http://www.w3.org/2000/svg" width="571" height="438" fill="none">
    <g stroke="#000">
        <g stroke-width="3">
            <path d="M1 10.5h234m.5-1.5v74.5m-1.5.5h337M9.5 287v142.5M104 289v138m188-140v138m188-136v138m-94-138v138" />
            <path d="M198 289v138M9.5 428h554" />
            <path d="M1.5 1.5h568v435H1.5z" />
        </g>
        <path d="M570.5 224.5H424v3.5c-7.167.5-21.8 1.2-23 0-2-4.5-4.167-1.5-4.5-1v6.5h174m-.5-145h-44v9h44m-146-9h44v9h-44v-9zM331.5 107v44h-9v-44h9z" />
        <path d="M323.5 107V90m-.5-.5h46m-.5.5v4m.5.5h-42" />
        <path d="M327.5 94v13m-4 44.5v33h9.5c8.896.236 1.5-5 0-5" />
        <path d="M327.5 151v28.5m5.5 0h-6M407 94v2l-1 1h-3l-.5-.5v-7m4 4h17" />
        <path d="M402 89.5h21.5m-341 133h38v11h-38zm113 0h40v11h-40v-11zM121 233h16.5v-4H121" />
        <path d="M195.5 233H179v-4h16.5m-75-5v-33m.5.5h108.5m-.5.5v30m-196.5 7v-37.5m-.5 0h85m.5-.5v31.5" />
    </g>
    <path fill="#c4c4c4" d="M16 289h82v136H16z" />
    <path d="M38.806 358.974h-2.338V363h-1.32v-9.953h3.295c1.12 0 1.982.255 2.584.765s.91 1.254.91 2.23c0 .62-.17 1.16-.506 1.62s-.798.804-1.395 1.032l2.338 4.225V363h-1.408l-2.16-4.026zm-2.338-1.074h2.017c.652 0 1.17-.168 1.552-.505s.58-.79.58-1.354c0-.615-.185-1.087-.554-1.415s-.893-.494-1.586-.5h-2v3.773zm6.78 1.333c0-.724.14-1.376.424-1.955s.684-1.025 1.19-1.34 1.092-.47 1.743-.47c1.007 0 1.82.348 2.44 1.046s.936 1.624.936 2.782v.09c0 .72-.14 1.367-.417 1.94s-.668 1.014-1.183 1.333-1.098.48-1.764.48c-1.003 0-1.816-.35-2.44-1.046s-.93-1.62-.93-2.77v-.09zm1.27.15c0 .82.19 1.48.567 1.975s.893.745 1.53.745 1.153-.25 1.53-.75c.378-.506.567-1.213.567-2.12 0-.81-.194-1.467-.58-1.968a1.82 1.82 0 0 0-1.531-.759c-.624 0-1.128.248-1.51.745s-.574 1.208-.574 2.133zm6.713-.15c0-.724.14-1.376.424-1.955s.684-1.025 1.19-1.34 1.092-.47 1.743-.47c1.007 0 1.82.348 2.44 1.046s.937 1.624.937 2.782v.09c0 .72-.14 1.367-.417 1.94s-.668 1.014-1.183 1.333-1.098.48-1.764.48c-1.003 0-1.816-.35-2.44-1.046s-.93-1.62-.93-2.77v-.09zm1.27.15c0 .82.19 1.48.567 1.975s.893.745 1.53.745 1.153-.25 1.53-.75c.378-.506.567-1.213.567-2.12 0-.81-.194-1.467-.58-1.968a1.82 1.82 0 0 0-1.531-.759c-.624 0-1.128.248-1.51.745s-.574 1.208-.574 2.133zm8.237-3.78l.034.82c.542-.638 1.274-.957 2.194-.957 1.035 0 1.74.396 2.112 1.19.246-.355.565-.642.957-.86s.864-.328 1.4-.328c1.622 0 2.447.86 2.475 2.577V363H68.65v-4.88c0-.53-.12-.923-.362-1.182-.242-.265-.647-.397-1.217-.397-.47 0-.86.14-1.17.424s-.5.654-.54 1.128V363h-1.27v-4.847c0-1.075-.526-1.613-1.58-1.613-.83 0-1.397.353-1.702 1.06v5.4h-1.265v-7.396h1.196zM79.33 363h-1.272v-8.43l-2.55.937v-1.15L79.13 353h.198v10z" fill="#000" />
    <path d="M16 25H227V180H16V25Z" fill="#c4c4c4" />
    <path d="M98.806 105.974h-2.338V110h-1.32v-9.953h3.295c1.12 0 1.983.255 2.584.765s.9 1.254.9 2.23c0 .62-.17 1.16-.506 1.62s-.798.804-1.395 1.032l2.338 4.225V110h-1.408l-2.16-4.026zm-2.338-1.074h2.017c.652 0 1.17-.168 1.552-.505.388-.338.58-.79.58-1.354 0-.615-.184-1.087-.554-1.415-.364-.328-.893-.494-1.585-.5h-2v3.773zm6.78 1.333c0-.724.14-1.376.424-1.955s.683-1.025 1.19-1.34c.51-.314 1.092-.47 1.743-.47 1.008 0 1.82.348 2.44 1.046s.936 1.624.936 2.782v.09c0 .72-.14 1.367-.417 1.94-.273.57-.667 1.014-1.182 1.333s-1.098.48-1.764.48c-1.002 0-1.816-.35-2.44-1.046s-.93-1.62-.93-2.77v-.09zm1.272.15c0 .82.19 1.48.567 1.975.383.497.893.745 1.53.745s1.153-.25 1.53-.75.568-1.213.568-2.12c0-.81-.194-1.467-.58-1.968s-.894-.76-1.532-.76c-.624 0-1.127.248-1.5.745s-.574 1.208-.574 2.133zm6.712-.15c0-.724.142-1.376.424-1.955.287-.578.684-1.025 1.2-1.34s1.09-.47 1.743-.47c1.007 0 1.82.348 2.44 1.046s.937 1.624.937 2.782v.09c0 .72-.14 1.367-.417 1.94s-.668 1.014-1.183 1.333-1.098.48-1.763.48c-1.003 0-1.817-.35-2.44-1.046s-.93-1.62-.93-2.77v-.09zm1.272.15c0 .82.19 1.48.567 1.975s.893.745 1.532.745 1.153-.25 1.53-.75.567-1.213.567-2.12c0-.81-.194-1.467-.58-1.968a1.82 1.82 0 0 0-1.531-.759c-.625 0-1.128.248-1.51.745s-.574 1.208-.574 2.133zm8.237-3.78l.034.82c.543-.638 1.274-.957 2.195-.957 1.034 0 1.738.396 2.112 1.19.246-.355.565-.642.957-.86s.864-.328 1.4-.328c1.623 0 2.448.86 2.475 2.577V110h-1.265v-4.88c0-.53-.12-.923-.362-1.182-.24-.265-.647-.397-1.217-.397-.47 0-.86.14-1.17.424s-.5.654-.54 1.128V110h-1.27v-4.847c0-1.075-.527-1.613-1.58-1.613-.83 0-1.397.353-1.702 1.06v5.4h-1.265v-7.396h1.196zm20.672 3.15c0 1.48-.253 2.582-.76 3.302s-1.296 1.08-2.372 1.08c-1.062 0-1.848-.35-2.358-1.053s-.775-1.76-.793-3.158v-1.69c0-1.463.253-2.55.76-3.26s1.298-1.067 2.38-1.067c1.07 0 1.86.344 2.365 1.032s.765 1.74.78 3.172v1.64zm-1.265-1.73c0-1.07-.15-1.85-.45-2.337-.3-.493-.777-.74-1.428-.74s-1.12.244-1.416.732-.448 1.237-.458 2.25v2.023c0 1.076.155 1.87.465 2.386s.79.765 1.422.765c.625 0 1.087-.24 1.388-.724s.465-1.244.478-2.283v-2.072z" fill="#000" />
    <path fill="#c4c4c4" d="M110 289h82v136h-82z" />
    <path d="M131.806 358.974h-2.338V363h-1.32v-9.953h3.295c1.12 0 1.983.255 2.584.765.606.51.9 1.254.9 2.23 0 .62-.17 1.16-.506 1.62s-.798.804-1.395 1.032l2.338 4.225V363h-1.408l-2.16-4.026zm-2.338-1.074h2.016c.652 0 1.17-.168 1.552-.505s.58-.79.58-1.354c0-.615-.184-1.087-.554-1.415-.364-.328-.893-.494-1.585-.5h-2v3.773zm6.78 1.333c0-.724.14-1.376.424-1.955s.683-1.025 1.19-1.34 1.092-.47 1.743-.47c1.008 0 1.82.348 2.44 1.046s.936 1.624.936 2.782v.09c0 .72-.14 1.367-.417 1.94s-.667 1.014-1.182 1.333-1.098.48-1.764.48c-1.002 0-1.816-.35-2.44-1.046s-.93-1.62-.93-2.77v-.09zm1.272.15c0 .82.19 1.48.567 1.975.383.497.893.745 1.53.745s1.153-.25 1.53-.75c.38-.506.568-1.213.568-2.12 0-.81-.194-1.467-.58-1.968s-.894-.76-1.532-.76c-.624 0-1.127.248-1.5.745s-.574 1.208-.574 2.133zm6.712-.15c0-.724.142-1.376.424-1.955s.684-1.025 1.2-1.34 1.09-.47 1.743-.47c1.007 0 1.82.348 2.44 1.046s.937 1.624.937 2.782v.09c0 .72-.14 1.367-.417 1.94s-.668 1.014-1.183 1.333c-.5.32-1.098.48-1.763.48-1.003 0-1.817-.35-2.44-1.046s-.93-1.62-.93-2.77v-.09zm1.272.15c0 .82.19 1.48.567 1.975s.893.745 1.532.745 1.153-.25 1.53-.75c.378-.506.567-1.213.567-2.12 0-.81-.194-1.467-.58-1.968a1.82 1.82 0 0 0-1.531-.759c-.625 0-1.128.248-1.51.745s-.574 1.208-.574 2.133zm8.237-3.78l.034.82c.543-.638 1.274-.957 2.195-.957 1.034 0 1.738.396 2.112 1.19.246-.355.565-.642.957-.86.397-.22.864-.328 1.4-.328 1.623 0 2.448.86 2.475 2.577V363h-1.265v-4.88c0-.53-.12-.923-.362-1.182-.24-.265-.647-.397-1.217-.397-.47 0-.86.14-1.17.424s-.5.654-.54 1.128V363h-1.27v-4.847c0-1.075-.527-1.613-1.58-1.613-.83 0-1.397.353-1.702 1.06v5.4h-1.265v-7.396h1.196zM174.694 363h-6.52v-.91l3.445-3.828c.51-.58.86-1.048 1.053-1.41a2.35 2.35 0 0 0 .294-1.127c0-.52-.157-.946-.472-1.28s-.734-.5-1.258-.5c-.63 0-1.118.18-1.47.54s-.52.852-.52 1.5h-1.265c0-.916.294-1.656.882-2.22s1.383-.848 2.372-.848c.925 0 1.657.244 2.195.732s.806 1.128.806 1.934c0 .98-.624 2.147-1.873 3.5l-2.666 2.892h4.997V363z" fill="#000" />
    <path fill="#c4c4c4" d="M204 289h82v136h-82z" />
    <path d="M226.806 358.974h-2.338V363h-1.32v-9.953h3.295c1.12 0 1.983.255 2.584.765.606.51.9 1.254.9 2.23 0 .62-.17 1.16-.506 1.62s-.798.804-1.395 1.032l2.338 4.225V363h-1.408l-2.16-4.026zm-2.338-1.074h2.016c.652 0 1.17-.168 1.552-.505s.58-.79.58-1.354c0-.615-.184-1.087-.554-1.415-.364-.328-.893-.494-1.585-.5h-2v3.773zm6.78 1.333c0-.724.14-1.376.424-1.955s.683-1.025 1.19-1.34 1.092-.47 1.743-.47c1.008 0 1.82.348 2.44 1.046s.936 1.624.936 2.782v.09c0 .72-.14 1.367-.417 1.94s-.667 1.014-1.182 1.333-1.098.48-1.764.48c-1.002 0-1.816-.35-2.44-1.046s-.93-1.62-.93-2.77v-.09zm1.272.15c0 .82.19 1.48.567 1.975.383.497.893.745 1.53.745s1.153-.25 1.53-.75c.38-.506.568-1.213.568-2.12 0-.81-.194-1.467-.58-1.968s-.894-.76-1.532-.76c-.624 0-1.127.248-1.5.745s-.574 1.208-.574 2.133zm6.712-.15c0-.724.142-1.376.424-1.955s.684-1.025 1.2-1.34 1.09-.47 1.743-.47c1.007 0 1.82.348 2.44 1.046s.937 1.624.937 2.782v.09c0 .72-.14 1.367-.417 1.94s-.668 1.014-1.183 1.333c-.5.32-1.098.48-1.763.48-1.003 0-1.817-.35-2.44-1.046s-.93-1.62-.93-2.77v-.09zm1.272.15c0 .82.19 1.48.567 1.975s.893.745 1.532.745 1.153-.25 1.53-.75c.378-.506.567-1.213.567-2.12 0-.81-.194-1.467-.58-1.968a1.82 1.82 0 0 0-1.531-.759c-.625 0-1.128.248-1.51.745s-.574 1.208-.574 2.133zm8.237-3.78l.034.82c.543-.638 1.274-.957 2.195-.957 1.034 0 1.738.396 2.112 1.19.246-.355.565-.642.957-.86.397-.22.864-.328 1.4-.328 1.623 0 2.448.86 2.475 2.577V363h-1.265v-4.88c0-.53-.12-.923-.362-1.182-.24-.265-.647-.397-1.217-.397-.47 0-.86.14-1.17.424s-.5.654-.54 1.128V363h-1.27v-4.847c0-1.075-.527-1.613-1.58-1.613-.83 0-1.397.353-1.702 1.06v5.4h-1.265v-7.396h1.196zm16.27 1.804h.95c.597-.01 1.066-.166 1.408-.47s.513-.718.513-1.238c0-1.166-.58-1.75-1.743-1.75-.547 0-.985.157-1.313.472s-.485.722-.485 1.237h-1.265c0-.788.287-1.442.86-1.962s1.313-.786 2.202-.786c.938 0 1.674.25 2.208.745s.8 1.187.8 2.072c0 .433-.14.852-.423 1.257a2.52 2.52 0 0 1-1.142.91c.547.173.968.46 1.265.86s.45.89.45 1.47c0 .893-.292 1.6-.875 2.126s-1.342.786-2.277.786-1.695-.253-2.283-.76-.875-1.174-.875-2.003h1.272c0 .524.17.943.512 1.258s.8.47 1.374.47c.61 0 1.078-.16 1.402-.478s.485-.777.485-1.374c0-.58-.178-1.023-.533-1.333s-.868-.47-1.538-.48h-.95v-1.032z" fill="#000" />
    <path fill="#c4c4c4" d="M298 289h82v136h-82z" />
    <path d="M321.806 358.974h-2.338V363h-1.32v-9.953h3.295c1.12 0 1.983.255 2.584.765s.9 1.254.9 2.23c0 .62-.17 1.16-.506 1.62s-.798.804-1.395 1.032l2.338 4.225V363h-1.408l-2.16-4.026zm-2.338-1.074h2.016c.652 0 1.17-.168 1.552-.505s.58-.79.58-1.354c0-.615-.184-1.087-.554-1.415-.364-.328-.893-.494-1.585-.5h-2v3.773zm6.78 1.333c0-.724.14-1.376.424-1.955s.683-1.025 1.19-1.34 1.092-.47 1.743-.47c1.008 0 1.82.348 2.44 1.046s.936 1.624.936 2.782v.09c0 .72-.14 1.367-.417 1.94s-.667 1.014-1.182 1.333-1.098.48-1.764.48c-1.002 0-1.816-.35-2.44-1.046s-.93-1.62-.93-2.77v-.09zm1.272.15c0 .82.19 1.48.567 1.975s.893.745 1.53.745 1.153-.25 1.53-.75c.38-.506.568-1.213.568-2.12 0-.81-.194-1.467-.58-1.968s-.894-.76-1.532-.76c-.624 0-1.127.248-1.5.745s-.574 1.208-.574 2.133zm6.712-.15c0-.724.142-1.376.424-1.955.287-.578.684-1.025 1.2-1.34s1.09-.47 1.743-.47c1.007 0 1.82.348 2.44 1.046.625.697.937 1.624.937 2.782v.09c0 .72-.14 1.367-.417 1.94s-.668 1.014-1.183 1.333-1.098.48-1.763.48c-1.003 0-1.817-.35-2.44-1.046s-.93-1.62-.93-2.77v-.09zm1.272.15c0 .82.19 1.48.567 1.975s.893.745 1.532.745 1.153-.25 1.53-.75c.378-.506.567-1.213.567-2.12 0-.81-.194-1.467-.58-1.968a1.82 1.82 0 0 0-1.531-.759c-.625 0-1.128.248-1.51.745s-.574 1.208-.574 2.133zm8.237-3.78l.034.82c.543-.638 1.274-.957 2.195-.957 1.034 0 1.738.396 2.112 1.19.246-.355.565-.642.957-.86s.864-.328 1.4-.328c1.623 0 2.448.86 2.475 2.577V363h-1.265v-4.88c0-.53-.12-.923-.362-1.182-.24-.265-.647-.397-1.217-.397-.47 0-.86.14-1.17.424s-.5.654-.54 1.128V363h-1.27v-4.847c0-1.075-.527-1.613-1.58-1.613-.83 0-1.397.353-1.702 1.06v5.4h-1.265v-7.396h1.196zm19.77 4.053h1.38v1.032h-1.38V363h-1.272v-2.31h-4.532v-.745l4.457-6.897h1.347v6.6zm-4.368 0h3.096v-4.88l-.15.274-2.946 4.607z" fill="#000" />
    <path fill="#c4c4c4" d="M392 289h82v136h-82z" />
    <path d="M414.806 358.974h-2.338V363h-1.32v-9.953h3.295c1.12 0 1.983.255 2.584.765s.9 1.254.9 2.23c0 .62-.17 1.16-.506 1.62s-.798.804-1.395 1.032l2.338 4.225V363h-1.408l-2.16-4.026zm-2.338-1.074h2.016c.652 0 1.17-.168 1.552-.505s.58-.79.58-1.354c0-.615-.184-1.087-.554-1.415-.364-.328-.893-.494-1.585-.5h-2v3.773zm6.78 1.333c0-.724.14-1.376.424-1.955s.683-1.025 1.19-1.34 1.092-.47 1.743-.47c1.008 0 1.82.348 2.44 1.046s.936 1.624.936 2.782v.09c0 .72-.14 1.367-.417 1.94s-.667 1.014-1.182 1.333-1.098.48-1.764.48c-1.002 0-1.816-.35-2.44-1.046s-.93-1.62-.93-2.77v-.09zm1.272.15c0 .82.19 1.48.567 1.975s.893.745 1.53.745 1.153-.25 1.53-.75c.38-.506.568-1.213.568-2.12 0-.81-.194-1.467-.58-1.968s-.894-.76-1.532-.76c-.624 0-1.127.248-1.5.745s-.574 1.208-.574 2.133zm6.712-.15c0-.724.142-1.376.424-1.955.287-.578.684-1.025 1.2-1.34s1.09-.47 1.743-.47c1.007 0 1.82.348 2.44 1.046.625.697.937 1.624.937 2.782v.09c0 .72-.14 1.367-.417 1.94s-.668 1.014-1.183 1.333-1.098.48-1.763.48c-1.003 0-1.817-.35-2.44-1.046s-.93-1.62-.93-2.77v-.09zm1.272.15c0 .82.19 1.48.567 1.975s.893.745 1.532.745 1.153-.25 1.53-.75c.378-.506.567-1.213.567-2.12 0-.81-.194-1.467-.58-1.968a1.82 1.82 0 0 0-1.531-.759c-.625 0-1.128.248-1.51.745s-.574 1.208-.574 2.133zm8.237-3.78l.034.82c.543-.638 1.274-.957 2.195-.957 1.034 0 1.738.396 2.112 1.19.246-.355.565-.642.957-.86s.864-.328 1.4-.328c1.623 0 2.448.86 2.475 2.577V363h-1.265v-4.88c0-.53-.12-.923-.362-1.182-.24-.265-.647-.397-1.217-.397-.47 0-.86.14-1.17.424s-.5.654-.54 1.128V363h-1.27v-4.847c0-1.075-.527-1.613-1.58-1.613-.83 0-1.397.353-1.702 1.06v5.4h-1.265v-7.396h1.196zM451.754 358l.506-4.963h5.1v1.17h-4.026l-.3 2.714c.488-.287 1.042-.43 1.66-.43.907 0 1.627.3 2.16.902s.8 1.406.8 2.427c0 1.026-.278 1.834-.834 2.427s-1.324.882-2.317.882c-.88 0-1.597-.244-2.153-.732s-.873-1.162-.95-2.023h1.197c.077.57.28 1 .608 1.292s.76.43 1.3.43c.588 0 1.048-.2 1.38-.6s.506-.955.506-1.66c0-.666-.183-1.2-.547-1.6s-.84-.608-1.443-.608c-.55 0-.984.12-1.298.362l-.335.274-1.012-.26z" fill="#000" />
    <path fill="#c4c4c4" d="M486 289h82v136h-82z" />
    <path d="M508.806 358.974h-2.338V363h-1.32v-9.953h3.295c1.12 0 1.983.255 2.584.765s.9 1.254.9 2.23c0 .62-.17 1.16-.506 1.62s-.798.804-1.395 1.032l2.338 4.225V363h-1.408l-2.16-4.026zm-2.338-1.074h2.016c.652 0 1.17-.168 1.552-.505s.58-.79.58-1.354c0-.615-.184-1.087-.554-1.415-.364-.328-.893-.494-1.585-.5h-2v3.773zm6.78 1.333c0-.724.14-1.376.424-1.955s.683-1.025 1.19-1.34c.51-.314 1.092-.47 1.743-.47 1.008 0 1.82.348 2.44 1.046s.936 1.624.936 2.782v.09c0 .72-.14 1.367-.417 1.94s-.667 1.014-1.182 1.333-1.098.48-1.764.48c-1.002 0-1.816-.35-2.44-1.046s-.93-1.62-.93-2.77v-.09zm1.272.15c0 .82.19 1.48.567 1.975.383.497.893.745 1.53.745s1.153-.25 1.53-.75c.38-.506.568-1.213.568-2.12 0-.81-.194-1.467-.58-1.968s-.894-.76-1.532-.76c-.624 0-1.127.248-1.5.745s-.574 1.208-.574 2.133zm6.712-.15c0-.724.142-1.376.424-1.955s.684-1.025 1.2-1.34 1.09-.47 1.743-.47c1.007 0 1.82.348 2.44 1.046s.937 1.624.937 2.782v.09c0 .72-.14 1.367-.417 1.94s-.668 1.014-1.183 1.333-1.098.48-1.763.48c-1.003 0-1.817-.35-2.44-1.046s-.93-1.62-.93-2.77v-.09zm1.272.15c0 .82.19 1.48.567 1.975s.893.745 1.532.745 1.153-.25 1.53-.75c.378-.506.567-1.213.567-2.12 0-.81-.194-1.467-.58-1.968a1.82 1.82 0 0 0-1.531-.759c-.625 0-1.128.248-1.51.745s-.574 1.208-.574 2.133zm8.237-3.78l.034.82c.543-.638 1.274-.957 2.195-.957 1.034 0 1.738.396 2.112 1.19.246-.355.565-.642.957-.86.397-.22.864-.328 1.4-.328 1.623 0 2.448.86 2.475 2.577V363h-1.265v-4.88c0-.53-.12-.923-.362-1.182-.24-.265-.647-.397-1.217-.397-.47 0-.86.14-1.17.424s-.5.654-.54 1.128V363h-1.27v-4.847c0-1.075-.527-1.613-1.58-1.613-.83 0-1.397.353-1.702 1.06v5.4h-1.265v-7.396h1.196zm19.394-2.564v1.073h-.233c-.984.02-1.768.3-2.35.875s-.92 1.36-1.012 2.386c.524-.602 1.24-.902 2.147-.902.865 0 1.556.305 2.07.916s.78 1.4.78 2.365c0 1.025-.28 1.846-.84 2.46s-1.303.923-2.242.923a2.84 2.84 0 0 1-2.317-1.094c-.593-.734-.89-1.677-.89-2.83v-.485c0-1.832.4-3.232 1.17-4.198s1.948-1.467 3.493-1.5h.226zm-1.66 4.484a2.02 2.02 0 0 0-1.197.39c-.364.26-.617.586-.758.978v.464c0 .82.184 1.482.553 1.983s.83.752 1.38.752c.57 0 1.016-.2 1.34-.63s.492-.97.492-1.648-.166-1.235-.5-1.654c-.328-.424-.766-.636-1.312-.636z" fill="#000" />
</svg>
